Normalized EMG Linear Envelopes
nRows=65
nColumns=17

endheader
time	        VM	        VL	        RF	       GRA	        TA	   ADDLONG	   SEMIMEM	      BFLH	        GM	        GL	       TFL	   GLUTMAX	   GLUTMED	      PIRI	    OBTINT	        QF	
1.925	  0.718172	  0.489443	  0.062278	  0.265956	  0.362779	  0.066596	  0.597691	  0.494022	  0.457436	  0.200930	  0.055953	  0.531742	  0.208891	  0.531035	  0.961093	  0.698298	
1.9255	  0.724649	  0.494807	  0.062943	  0.265342	  0.361669	  0.066501	  0.594391	  0.491798	  0.458698	  0.202698	  0.056599	  0.531242	  0.209351	  0.530156	  0.959678	  0.704945	
1.926	  0.731060	  0.500143	  0.063606	  0.264719	  0.360533	  0.066403	  0.591112	  0.489596	  0.459955	  0.204495	  0.057252	  0.530785	  0.209849	  0.529344	  0.958395	  0.711623	
1.9265	  0.737400	  0.505448	  0.064268	  0.264089	  0.359370	  0.066303	  0.587856	  0.487418	  0.461209	  0.206321	  0.057913	  0.530369	  0.210383	  0.528599	  0.957247	  0.718330	
1.927	  0.743666	  0.510721	  0.064928	  0.263453	  0.358183	  0.066200	  0.584622	  0.485267	  0.462459	  0.208175	  0.058581	  0.529993	  0.210954	  0.527924	  0.956234	  0.725061	
1.9275	  0.749853	  0.515956	  0.065586	  0.262811	  0.356973	  0.066096	  0.581413	  0.483145	  0.463709	  0.210058	  0.059258	  0.529657	  0.211560	  0.527318	  0.955359	  0.731815	
1.928	  0.755955	  0.521153	  0.066242	  0.262165	  0.355741	  0.065989	  0.578229	  0.481056	  0.464958	  0.211969	  0.059942	  0.529360	  0.212200	  0.526782	  0.954622	  0.738586	
1.9285	  0.761970	  0.526308	  0.066896	  0.261516	  0.354487	  0.065881	  0.575070	  0.479000	  0.466210	  0.213907	  0.060634	  0.529100	  0.212874	  0.526318	  0.954025	  0.745371	
1.929	  0.767891	  0.531418	  0.067548	  0.260865	  0.353213	  0.065771	  0.571937	  0.476981	  0.467464	  0.215872	  0.061334	  0.528879	  0.213581	  0.525925	  0.953569	  0.752168	
1.9295	  0.773715	  0.536480	  0.068198	  0.260213	  0.351919	  0.065659	  0.568832	  0.474999	  0.468723	  0.217864	  0.062042	  0.528695	  0.214321	  0.525606	  0.953257	  0.758975	
1.93	  0.779436	  0.541493	  0.068845	  0.259561	  0.350607	  0.065546	  0.565755	  0.473058	  0.469987	  0.219881	  0.062758	  0.528547	  0.215092	  0.525361	  0.953089	  0.765787	
1.9305	  0.785050	  0.546452	  0.069491	  0.258910	  0.349277	  0.065432	  0.562707	  0.471159	  0.471258	  0.221924	  0.063482	  0.528437	  0.215894	  0.525189	  0.953066	  0.772602	
1.931	  0.790552	  0.551355	  0.070133	  0.258261	  0.347931	  0.065317	  0.559689	  0.469303	  0.472536	  0.223992	  0.064213	  0.528364	  0.216727	  0.525092	  0.953190	  0.779418	
1.9315	  0.795935	  0.556200	  0.070774	  0.257615	  0.346569	  0.065201	  0.556703	  0.467492	  0.473824	  0.226085	  0.064953	  0.528327	  0.217589	  0.525071	  0.953464	  0.786232	
1.932	  0.801197	  0.560982	  0.071411	  0.256973	  0.345192	  0.065084	  0.553750	  0.465728	  0.475122	  0.228202	  0.065700	  0.528326	  0.218480	  0.525124	  0.953888	  0.793041	
1.9325	  0.806332	  0.565698	  0.072046	  0.256336	  0.343802	  0.064967	  0.550831	  0.464011	  0.476432	  0.230343	  0.066455	  0.528360	  0.219399	  0.525253	  0.954464	  0.799843	
1.933	  0.811335	  0.570347	  0.072679	  0.255703	  0.342397	  0.064849	  0.547948	  0.462344	  0.477755	  0.232507	  0.067218	  0.528429	  0.220346	  0.525458	  0.955195	  0.806633	
1.9335	  0.816202	  0.574924	  0.073309	  0.255077	  0.340980	  0.064731	  0.545101	  0.460728	  0.479092	  0.234693	  0.067989	  0.528532	  0.221319	  0.525738	  0.956081	  0.813409	
1.934	  0.820929	  0.579427	  0.073936	  0.254457	  0.339551	  0.064613	  0.542293	  0.459164	  0.480446	  0.236902	  0.068768	  0.528668	  0.222319	  0.526094	  0.957124	  0.820170	
1.9345	  0.825513	  0.583854	  0.074561	  0.253845	  0.338110	  0.064494	  0.539525	  0.457653	  0.481817	  0.239133	  0.069553	  0.528838	  0.223343	  0.526526	  0.958325	  0.826911	
1.935	  0.829949	  0.588203	  0.075182	  0.253240	  0.336659	  0.064375	  0.536799	  0.456197	  0.483207	  0.241385	  0.070347	  0.529040	  0.224393	  0.527032	  0.959684	  0.833632	
1.9355	  0.834234	  0.592471	  0.075801	  0.252643	  0.335197	  0.064257	  0.534115	  0.454798	  0.484616	  0.243658	  0.071148	  0.529274	  0.225467	  0.527614	  0.961203	  0.840330	
1.936	  0.838365	  0.596657	  0.076417	  0.252055	  0.333726	  0.064138	  0.531475	  0.453455	  0.486045	  0.245951	  0.071956	  0.529540	  0.226564	  0.528269	  0.962882	  0.847003	
1.9365	  0.842338	  0.600760	  0.077030	  0.251476	  0.332246	  0.064019	  0.528880	  0.452170	  0.487497	  0.248265	  0.072771	  0.529838	  0.227684	  0.528998	  0.964722	  0.853648	
1.937	  0.846150	  0.604777	  0.077640	  0.250906	  0.330757	  0.063900	  0.526333	  0.450945	  0.488970	  0.250598	  0.073594	  0.530167	  0.228826	  0.529799	  0.966723	  0.860266	
1.9375	  0.849799	  0.608707	  0.078246	  0.250345	  0.329261	  0.063782	  0.523833	  0.449779	  0.490466	  0.252951	  0.074424	  0.530528	  0.229990	  0.530673	  0.968884	  0.866854	
1.938	  0.853282	  0.612550	  0.078849	  0.249793	  0.327757	  0.063663	  0.521381	  0.448673	  0.491986	  0.255323	  0.075260	  0.530919	  0.231175	  0.531617	  0.971206	  0.873410	
1.9385	  0.856594	  0.616302	  0.079448	  0.249252	  0.326247	  0.063544	  0.518979	  0.447629	  0.493530	  0.257713	  0.076104	  0.531341	  0.232379	  0.532631	  0.973689	  0.879932	
1.939	  0.859733	  0.619963	  0.080044	  0.248720	  0.324729	  0.063425	  0.516628	  0.446647	  0.495098	  0.260122	  0.076955	  0.531794	  0.233603	  0.533716	  0.976331	  0.886420	
1.9395	  0.862695	  0.623530	  0.080635	  0.248198	  0.323205	  0.063307	  0.514327	  0.445728	  0.496691	  0.262548	  0.077812	  0.532277	  0.234844	  0.534869	  0.979133	  0.892872	
1.94	  0.865478	  0.627003	  0.081223	  0.247686	  0.321674	  0.063188	  0.512077	  0.444872	  0.498309	  0.264991	  0.078676	  0.532790	  0.236103	  0.536091	  0.982094	  0.899285	
1.9405	  0.868078	  0.630380	  0.081806	  0.247184	  0.320138	  0.063070	  0.509879	  0.444079	  0.499952	  0.267451	  0.079546	  0.533332	  0.237378	  0.537380	  0.985214	  0.905658	
1.941	  0.870494	  0.633661	  0.082385	  0.246691	  0.318595	  0.062952	  0.507734	  0.443351	  0.501620	  0.269928	  0.080422	  0.533902	  0.238668	  0.538737	  0.988490	  0.911988	
1.9415	  0.872727	  0.636844	  0.082959	  0.246208	  0.317045	  0.062834	  0.505639	  0.442686	  0.503313	  0.272421	  0.081304	  0.534501	  0.239971	  0.540159	  0.991924	  0.918274	
1.942	  0.874777	  0.639930	  0.083528	  0.245735	  0.315489	  0.062717	  0.503597	  0.442086	  0.505030	  0.274930	  0.082191	  0.535128	  0.241288	  0.541646	  0.995513	  0.924514	
1.9425	  0.876646	  0.642919	  0.084092	  0.245272	  0.313927	  0.062601	  0.501606	  0.441551	  0.506772	  0.277456	  0.083084	  0.535782	  0.242615	  0.543197	  0.999257	  0.930705	
1.943	  0.878337	  0.645811	  0.084651	  0.244819	  0.312359	  0.062486	  0.499667	  0.441081	  0.508538	  0.279998	  0.083982	  0.536461	  0.243953	  0.544811	  1.003154	  0.936847	
1.9435	  0.879853	  0.648607	  0.085204	  0.244376	  0.310785	  0.062371	  0.497778	  0.440674	  0.510327	  0.282556	  0.084885	  0.537167	  0.245299	  0.546486	  1.007202	  0.942937	
1.944	  0.881197	  0.651306	  0.085752	  0.243943	  0.309205	  0.062258	  0.495938	  0.440332	  0.512137	  0.285132	  0.085792	  0.537896	  0.246652	  0.548220	  1.011400	  0.948974	
1.9445	  0.882372	  0.653909	  0.086293	  0.243520	  0.307620	  0.062145	  0.494149	  0.440053	  0.513969	  0.287725	  0.086703	  0.538648	  0.248011	  0.550014	  1.015746	  0.954958	
1.945	  0.883381	  0.656415	  0.086828	  0.243107	  0.306029	  0.062034	  0.492407	  0.439837	  0.515821	  0.290335	  0.087617	  0.539423	  0.249375	  0.551865	  1.020236	  0.960888	
1.9455	  0.884228	  0.658826	  0.087357	  0.242704	  0.304433	  0.061924	  0.490714	  0.439683	  0.517692	  0.292963	  0.088535	  0.540218	  0.250741	  0.553772	  1.024871	  0.966762	
1.946	  0.884916	  0.661141	  0.087878	  0.242311	  0.302832	  0.061815	  0.489067	  0.439591	  0.519580	  0.295609	  0.089456	  0.541031	  0.252108	  0.555733	  1.029645	  0.972580	
1.9465	  0.885449	  0.663361	  0.088392	  0.241927	  0.301227	  0.061707	  0.487465	  0.439560	  0.521484	  0.298272	  0.090379	  0.541862	  0.253475	  0.557748	  1.034558	  0.978340	
1.947	  0.885832	  0.665486	  0.088899	  0.241553	  0.299618	  0.061600	  0.485909	  0.439588	  0.523403	  0.300953	  0.091304	  0.542708	  0.254839	  0.559814	  1.039607	  0.984042	
1.9475	  0.886068	  0.667516	  0.089398	  0.241188	  0.298005	  0.061494	  0.484395	  0.439676	  0.525335	  0.303652	  0.092230	  0.543567	  0.256199	  0.561930	  1.044789	  0.989684	
1.948	  0.886161	  0.669452	  0.089890	  0.240832	  0.296388	  0.061391	  0.482924	  0.439820	  0.527278	  0.306368	  0.093157	  0.544437	  0.257553	  0.564095	  1.050101	  0.995264	
1.9485	  0.886116	  0.671295	  0.090374	  0.240485	  0.294768	  0.061288	  0.481494	  0.440022	  0.529230	  0.309102	  0.094085	  0.545317	  0.258900	  0.566308	  1.055541	  1.000784	
1.949	  0.885937	  0.673044	  0.090851	  0.240147	  0.293145	  0.061187	  0.480104	  0.440278	  0.531191	  0.311852	  0.095012	  0.546203	  0.260237	  0.568566	  1.061108	  1.006240	
1.9495	  0.885628	  0.674700	  0.091320	  0.239818	  0.291521	  0.061088	  0.478752	  0.440589	  0.533158	  0.314619	  0.095939	  0.547093	  0.261563	  0.570870	  1.066797	  1.011633	
1.95	  0.885193	  0.676263	  0.091781	  0.239497	  0.289894	  0.060990	  0.477436	  0.440952	  0.535130	  0.317402	  0.096864	  0.547985	  0.262877	  0.573216	  1.072608	  1.016963	
1.9505	  0.884635	  0.677733	  0.092235	  0.239185	  0.288266	  0.060894	  0.476155	  0.441367	  0.537106	  0.320201	  0.097787	  0.548876	  0.264176	  0.575605	  1.078537	  1.022226	
1.951	  0.883960	  0.679111	  0.092681	  0.238880	  0.286638	  0.060800	  0.474907	  0.441833	  0.539083	  0.323015	  0.098708	  0.549764	  0.265460	  0.578034	  1.084582	  1.027424	
1.9515	  0.883171	  0.680397	  0.093119	  0.238583	  0.285009	  0.060708	  0.473691	  0.442348	  0.541061	  0.325843	  0.099625	  0.550645	  0.266726	  0.580504	  1.090741	  1.032553	
1.952	  0.882273	  0.681591	  0.093550	  0.238292	  0.283381	  0.060618	  0.472504	  0.442910	  0.543038	  0.328686	  0.100539	  0.551517	  0.267973	  0.583013	  1.097010	  1.037613	
1.9525	  0.881270	  0.682694	  0.093974	  0.238009	  0.281753	  0.060530	  0.471346	  0.443520	  0.545015	  0.331542	  0.101449	  0.552378	  0.269201	  0.585560	  1.103387	  1.042602	
1.953	  0.880164	  0.683706	  0.094390	  0.237732	  0.280126	  0.060443	  0.470213	  0.444175	  0.546989	  0.334411	  0.102354	  0.553224	  0.270406	  0.588143	  1.109869	  1.047518	
1.9535	  0.878960	  0.684628	  0.094799	  0.237461	  0.278500	  0.060360	  0.469105	  0.444873	  0.548962	  0.337291	  0.103254	  0.554054	  0.271588	  0.590763	  1.116451	  1.052360	
1.954	  0.877661	  0.685459	  0.095201	  0.237195	  0.276875	  0.060278	  0.468020	  0.445614	  0.550933	  0.340183	  0.104148	  0.554864	  0.272747	  0.593419	  1.123131	  1.057124	
1.9545	  0.876270	  0.686201	  0.095596	  0.236935	  0.275251	  0.060199	  0.466955	  0.446396	  0.552901	  0.343086	  0.105035	  0.555654	  0.273880	  0.596109	  1.129906	  1.061808	
1.955	  0.874789	  0.686852	  0.095984	  0.236679	  0.273628	  0.060122	  0.465909	  0.447217	  0.554865	  0.345998	  0.105915	  0.556421	  0.274987	  0.598833	  1.136772	  1.066409	
1.9555	  0.873222	  0.687414	  0.096365	  0.236427	  0.272007	  0.060048	  0.464880	  0.448075	  0.556826	  0.348920	  0.106786	  0.557163	  0.276066	  0.601590	  1.143727	  1.070926	
1.956	  0.871572	  0.687885	  0.096738	  0.236179	  0.270387	  0.059977	  0.463867	  0.448968	  0.558783	  0.351851	  0.107650	  0.557878	  0.277118	  0.604379	  1.150767	  1.075354	
1.9565	  0.869842	  0.688267	  0.097105	  0.235935	  0.268768	  0.059908	  0.462867	  0.449895	  0.560735	  0.354790	  0.108504	  0.558566	  0.278141	  0.607200	  1.157889	  1.079693	
1.957	  0.868035	  0.688559	  0.097464	  0.235693	  0.267151	  0.059842	  0.461879	  0.450853	  0.562682	  0.357736	  0.109347	  0.559224	  0.279134	  0.610052	  1.165090	  1.083940	
